<svg width="20" height="21" viewBox="0 0 20 21" fill="none" xmlns="http://www.w3.org/2000/svg">
    <path
        d="M11.3726 15.2059C11.3726 15.3619 11.3106 15.5115 11.2003 15.6218C11.0899 15.7321 10.9403 15.7941 10.7843 15.7941C10.4203 15.7941 10.0712 15.6495 9.81378 15.3921C9.55637 15.1347 9.41177 14.7856 9.41177 14.4216V10.5C9.41177 10.448 9.39111 10.3981 9.35434 10.3613C9.31757 10.3246 9.26769 10.3039 9.21569 10.3039C9.05968 10.3039 8.91006 10.2419 8.79974 10.1316C8.68943 10.0213 8.62745 9.87169 8.62745 9.71568C8.62745 9.55967 8.68943 9.41006 8.79974 9.29974C8.91006 9.18942 9.05968 9.12745 9.21569 9.12745C9.57971 9.12745 9.92882 9.27206 10.1862 9.52946C10.4436 9.78686 10.5882 10.136 10.5882 10.5V14.4216C10.5882 14.4736 10.6089 14.5234 10.6457 14.5602C10.6824 14.597 10.7323 14.6176 10.7843 14.6176C10.9403 14.6176 11.0899 14.6796 11.2003 14.7899C11.3106 14.9002 11.3726 15.0499 11.3726 15.2059ZM9.60785 7.16667C9.80175 7.16667 9.9913 7.10917 10.1525 7.00144C10.3137 6.89371 10.4394 6.7406 10.5136 6.56145C10.5878 6.38231 10.6072 6.18519 10.5694 5.99501C10.5316 5.80483 10.4382 5.63014 10.3011 5.49303C10.164 5.35592 9.98929 5.26255 9.79911 5.22472C9.60893 5.18689 9.41181 5.20631 9.23267 5.28051C9.05352 5.35471 8.90041 5.48037 8.79268 5.6416C8.68495 5.80282 8.62745 5.99237 8.62745 6.18627C8.62745 6.44629 8.73074 6.69566 8.9146 6.87952C9.09846 7.06337 9.34783 7.16667 9.60785 7.16667ZM20 10.5C20 12.4778 19.4135 14.4112 18.3147 16.0557C17.2159 17.7002 15.6541 18.9819 13.8268 19.7388C11.9996 20.4957 9.98891 20.6937 8.0491 20.3078C6.10929 19.922 4.32746 18.9696 2.92894 17.5711C1.53041 16.1725 0.578004 14.3907 0.192152 12.4509C-0.1937 10.5111 0.00433267 8.50043 0.761209 6.67316C1.51809 4.8459 2.79981 3.28412 4.4443 2.1853C6.08879 1.08649 8.02219 0.5 10 0.5C12.6512 0.503114 15.1929 1.55768 17.0676 3.43237C18.9423 5.30706 19.9969 7.84879 20 10.5ZM18.8235 10.5C18.8235 8.75487 18.306 7.04893 17.3365 5.59791C16.367 4.14689 14.9889 3.01595 13.3766 2.34812C11.7643 1.68029 9.99021 1.50555 8.27862 1.84601C6.56702 2.18647 4.99482 3.02683 3.76083 4.26082C2.52683 5.49481 1.68647 7.06702 1.34602 8.77861C1.00556 10.4902 1.18029 12.2643 1.84813 13.8766C2.51596 15.4889 3.64689 16.867 5.09791 17.8365C6.54893 18.806 8.25487 19.3235 10 19.3235C12.3394 19.3209 14.5821 18.3905 16.2363 16.7363C17.8905 15.0821 18.8209 12.8393 18.8235 10.5Z"
        fill="black" />
</svg>
    