<svg width="5" height="5" viewBox="0 0 18 18" fill="none" xmlns="http://www.w3.org/2000/svg">
    <path
        d="M13.5373 17.1519C13.2933 17.1517 13.053 17.092 12.8373 16.9779L9.17131 15.0509C9.09972 15.0134 9.02011 14.9939 8.93931 14.9939C8.8585 14.9939 8.77889 15.0134 8.70731 15.0509L5.03731 16.9779C4.78957 17.1083 4.51029 17.1668 4.23106 17.1467C3.95183 17.1266 3.6838 17.0288 3.45728 16.8643C3.23076 16.6998 3.0548 16.4751 2.9493 16.2158C2.8438 15.9565 2.81297 15.6729 2.86031 15.3969L3.56031 11.3149C3.57401 11.2352 3.56816 11.1533 3.54325 11.0763C3.51835 10.9993 3.47513 10.9295 3.41731 10.8729L0.453305 7.98194C0.252732 7.78655 0.110855 7.53891 0.0437331 7.26706C-0.0233892 6.99521 -0.0130771 6.71 0.0735022 6.4437C0.160082 6.17741 0.319471 5.94067 0.533632 5.76027C0.747793 5.57987 1.00817 5.46302 1.28531 5.42294L5.38531 4.82294C5.46539 4.81126 5.54145 4.78032 5.60694 4.73277C5.67244 4.68522 5.72541 4.62248 5.76131 4.54994L7.59431 0.83594C7.7182 0.585008 7.90982 0.373737 8.1475 0.226012C8.38518 0.0782874 8.65945 0 8.93931 0C9.21916 0 9.49343 0.0782874 9.73111 0.226012C9.96879 0.373737 10.1604 0.585008 10.2843 0.83594L12.1173 4.54994C12.1531 4.62267 12.206 4.68561 12.2715 4.73334C12.337 4.78107 12.4131 4.81216 12.4933 4.82394L16.5933 5.42394C16.8704 5.46402 17.1308 5.58087 17.345 5.76127C17.5591 5.94167 17.7185 6.17841 17.8051 6.4447C17.8917 6.711 17.902 6.99621 17.8349 7.26806C17.7678 7.53991 17.6259 7.78755 17.4253 7.98294L14.4603 10.8739C14.4023 10.9304 14.3589 11.0002 14.3338 11.0772C14.3087 11.1542 14.3027 11.2361 14.3163 11.3159L15.0163 15.3979C15.0533 15.6133 15.0428 15.8342 14.9855 16.0451C14.9283 16.256 14.8256 16.4518 14.6847 16.6189C14.5438 16.786 14.3681 16.9202 14.17 17.0123C13.9718 17.1044 13.7558 17.152 13.5373 17.1519ZM9.63731 14.1659L13.3013 16.0889C13.3839 16.1322 13.4769 16.1516 13.5698 16.1448C13.6628 16.138 13.752 16.1053 13.8274 16.0505C13.9028 15.9957 13.9614 15.9209 13.9965 15.8346C14.0317 15.7483 14.042 15.6538 14.0263 15.5619L13.3263 11.4799C13.2852 11.2401 13.3031 10.994 13.3783 10.7626C13.4536 10.5312 13.584 10.3217 13.7583 10.1519L16.7233 7.26194C16.7902 7.19683 16.8375 7.11431 16.8598 7.02372C16.8822 6.93313 16.8788 6.83808 16.85 6.74932C16.8212 6.66056 16.7681 6.58165 16.6968 6.52149C16.6254 6.46134 16.5387 6.42235 16.4463 6.40894L12.3463 5.80894C12.1055 5.77401 11.8768 5.68103 11.6799 5.53799C11.483 5.39496 11.3239 5.20618 11.2163 4.98794L9.38631 1.28294C9.34146 1.20301 9.27613 1.13647 9.19704 1.09016C9.11795 1.04385 9.02796 1.01944 8.93631 1.01944C8.84466 1.01944 8.75466 1.04385 8.67557 1.09016C8.59648 1.13647 8.53115 1.20301 8.48631 1.28294L6.65631 4.99694C6.54855 5.21499 6.38938 5.40357 6.19253 5.54643C5.99567 5.68928 5.76703 5.78212 5.52631 5.81694L1.42631 6.41694C1.33396 6.43035 1.2472 6.46934 1.17586 6.52949C1.10451 6.58965 1.05143 6.66856 1.02261 6.75732C0.993784 6.84608 0.990375 6.94113 1.01277 7.03172C1.03516 7.12231 1.08245 7.20483 1.14931 7.26994L4.11731 10.1569C4.29205 10.3272 4.42263 10.5375 4.49774 10.7696C4.57284 11.0017 4.5902 11.2486 4.54831 11.4889L3.84831 15.5709C3.83248 15.663 3.84274 15.7576 3.87792 15.8441C3.9131 15.9305 3.97179 16.0055 4.04735 16.0603C4.12291 16.1152 4.21232 16.1477 4.30545 16.1544C4.39858 16.1611 4.49172 16.1415 4.57431 16.0979L8.23731 14.1659C8.45307 14.0521 8.69335 13.9926 8.93731 13.9926C9.18126 13.9926 9.42154 14.0521 9.63731 14.1659Z"
        fill="black" />
</svg>
    