<svg fill="none" xmlns="http://www.w3.org/2000/svg" viewBox="0 0 361 260">
    <rect width="361" height="260" fill="#B8BBC0"></rect>
    <path
        d="M145.876 134.964C147.571 133.286 147.121 129.394 144.871 126.271C143.887 124.905 142.72 123.912 141.578 123.369L140.265 121.592L123.31 96.6819C123.31 96.6819 113.921 71.9017 111.149 69.2246C108.377 66.5475 105.116 67.9413 105.116 67.9413L102.572 71.6324L118.427 106.232L134.654 125.38L136.844 128.058C137.11 129.469 137.75 130.983 138.735 132.35C140.984 135.472 144.182 136.643 145.876 134.964Z"
        fill="#FFB6B6"></path>
    <path
        d="M113.871 73.8321L118.12 81.1388L124.22 91.7242L113.26 96.1699L103.583 76.6998L113.871 73.8321Z"
        fill="#E6E6E6"></path>
    <path
        d="M216.961 154.74H197.331V146.979C197.331 134.493 206.036 124.357 216.759 124.357H216.961V154.74Z"
        fill="#151515"></path>
    <path d="M201.257 150.545L204.606 137.749L213.198 137.247L216.961 154.74L201.257 150.545Z"
        fill="#A0616A"></path>
    <path opacity="0.1"
        d="M201.257 150.545L204.606 137.749L213.198 137.247L216.961 154.74L201.257 150.545Z"
        fill="black"></path>
    <path
        d="M209.109 145.533C214.313 145.533 218.532 140.38 218.532 134.024C218.532 127.668 214.313 122.515 209.109 122.515C203.905 122.515 199.686 127.668 199.686 134.024C199.686 140.38 203.905 145.533 209.109 145.533Z"
        fill="#A0616A"></path>
    <path
        d="M188.754 197.296L186.217 200.265C186.217 200.265 172.664 189.627 167.466 193.594C162.268 197.561 162.042 205.244 168.154 209.482C174.266 213.721 189.886 224.052 189.886 224.052C189.886 224.052 210.712 228.291 224.747 215.31C238.782 202.33 241.385 202.992 238.895 196.104C236.405 189.217 230.972 190.806 230.972 190.806L220.559 197.959L216.258 196.899L188.754 197.296Z"
        fill="#151515"></path>
    <path d="M189.461 200.775L200.472 206.515L196.343 218.269L180.056 213.622" fill="#151515"></path>
    <path d="M217.49 200.775L202.827 208.86L208.494 222.872L224.813 214.519" fill="#151515"></path>
    <path
        d="M202.272 148.295L187.908 155.712L192.505 185.293L188.368 197.662L210.43 201.696L221.744 197.588L220.772 191.746L221.744 169.943L225.598 157.057L215.257 148.721L202.272 148.295Z"
        fill="#CCCCCC"></path>
    <path d="M199.013 207.22L205.968 209.575L202.603 219.189L193.405 215.069L199.013 207.22Z"
        fill="#A0616A"></path>
    <path d="M208.727 207.22L199.686 212.32V220.11L209.894 218.763L208.727 207.22Z" fill="#A0616A"></path>
    <path
        d="M195.76 222.307C195.76 222.307 210.978 233.814 216.742 229.107C222.506 224.399 225.734 218.384 224.581 217.599C223.428 216.814 219.97 215.507 219.97 215.507L200.602 219.953L195.76 222.307Z"
        fill="#151515"></path>
    <path
        d="M176.604 213.03C176.604 213.03 168.787 226.857 176.144 228.985C183.501 231.112 202.042 222.337 202.042 222.337L200.745 210.903L197.296 214.892L176.604 213.03Z"
        fill="#151515"></path>
    <path
        d="M225.267 116.915C223.131 114.6 222.418 111.432 223.675 109.838C224.932 108.244 227.682 108.829 229.818 111.146C230.682 112.057 231.348 113.198 231.759 114.473L240.703 124.416L236.634 129.238L228.249 118.924C227.132 118.543 226.11 117.855 225.267 116.915Z"
        fill="#A0616A"></path>
    <path
        d="M222.834 147.747L239.018 138.486L230.646 121.602L233.267 115.358C233.267 115.358 253.642 128.676 251.615 138.367C249.587 148.058 229.378 165.86 222.923 163.014C220.964 162.15 219.829 160.608 219.198 158.879C217.658 154.658 219.315 149.761 222.834 147.747Z"
        fill="#E6E6E6"></path>
    <path
        d="M190.355 143.379C190.846 141.597 191.816 140.037 192.25 138.235C192.826 135.841 194.052 141.151 194.172 138.665C194.4 133.94 200.446 121.784 203.898 119.45C207.35 117.115 209.333 117.819 212.85 120.011C212.85 120.011 214.557 120.141 216.682 121.392C218.807 122.644 220.72 124.648 221.547 127.298C222.202 129.398 222.13 131.704 222.349 133.929C222.959 140.129 225.872 146.026 225.247 152.224C225.052 154.157 224.436 156.157 223.11 157.294C221.785 158.432 219.643 158.308 218.77 156.662C218.473 156.1 218.347 155.433 218.092 154.843C217.836 154.252 217.375 153.701 216.818 153.719C215.981 153.747 215.555 155.087 215.885 156.005C216.215 156.923 216.991 157.477 217.719 157.971C215.985 158.901 213.832 158.612 212.315 157.243C210.798 155.874 209.979 153.482 210.258 151.238C210.651 148.075 214.515 148.73 214.97 145.579C215.301 143.285 216.464 139.447 216.148 137.15C215.831 134.853 214.309 137.634 215.912 136.307C214.148 137.321 210.375 130.383 208.528 129.606C206.682 128.829 205.116 127.146 204.277 125.036C202.318 128.422 200.595 127.503 199.894 131.531C199.192 135.559 200.357 147.983 203.245 150.232C202.089 151.173 200.652 149.244 200.109 150.783C199.802 151.654 199.603 152.608 199.093 153.332C198.119 154.714 196.321 154.798 194.887 154.217C193.11 153.496 191.59 151.913 190.752 149.91C189.914 147.906 189.768 145.506 190.355 143.379Z"
        fill="#151515"></path>
    <path
        d="M165.894 140.514C165.372 137.159 163.472 134.756 161.651 135.146C159.83 135.536 158.778 138.572 159.301 141.928C159.494 143.272 159.959 144.543 160.657 145.633L163.023 159.816L168.676 158.372L165.743 144.543C166.067 143.234 166.119 141.852 165.894 140.514Z"
        fill="#A0616A"></path>
    <path
        d="M189.398 154.627L174.057 165.687L166.386 148.351L160.486 147.6C160.486 147.6 159.157 174.908 167.222 178.094C175.286 181.279 198.934 170.811 200.344 162.896C200.771 160.494 200.269 158.543 199.363 156.993C197.149 153.206 192.734 152.222 189.398 154.627Z"
        fill="#CCCCCC"></path>
    <path d="M272.711 174.949L218.531 195.251V117.038L272.711 96.7357V174.949Z" fill="white"></path>
    <path
        d="M217.746 196.172V116.527L273.496 95.815V175.46L217.746 196.172ZM218.486 117.164V194.984L272.756 174.822V97.0022L218.486 117.164Z"
        fill="#3F3D56"></path>
    <path d="M138.44 192.744L182.412 209.062V146.199L138.44 129.881V192.744Z" fill="white"></path>
    <path
        d="M183.197 209.982L182.716 209.802L138.44 193.255V128.96L138.921 129.14L183.197 145.688V209.982ZM139.178 192.615L182.459 208.79V146.328L139.178 130.152V192.615Z"
        fill="#3F3D56"></path>
    <path
        d="M231.266 121.595C230.632 125.447 231.789 129.635 234.232 132.333C236.675 135.03 240.326 136.151 243.592 135.206C246.693 134.308 249.593 130.487 248.281 127.092C247.346 124.671 244.493 123.755 242.446 124.919C240.398 126.083 239.26 128.881 239.378 131.533C239.496 134.184 240.707 136.649 242.322 138.521C246.534 143.404 253.282 144.671 256.995 150.077C260.237 154.798 260.137 162.208 256.769 166.808C253.402 171.408 247.139 172.689 242.628 169.7C240.769 168.469 239.169 166.492 238.707 164.059C238.246 161.625 239.176 158.771 241.13 157.757C244.815 155.846 248.525 160.98 252.557 161.055C254.867 161.099 257.111 159.237 257.831 156.679C258.551 154.121 257.691 151.071 255.809 149.511"
        fill="#2F3E4F"></path>
    <path
        d="M153.983 176.685C154.707 179.098 153.205 182.041 151 182.529C148.794 183.018 146.427 180.932 146.298 178.388C146.169 175.843 148.31 173.464 150.551 173.663C154.16 173.983 156.292 179.587 159.905 179.325C162.378 179.146 163.939 176.278 164.852 173.665C165.903 170.657 166.671 167.522 167.14 164.331C167.532 161.669 167.711 158.912 167.147 156.291C166.582 153.669 165.184 151.179 163.064 149.954C159.843 148.093 155.435 149.909 153.897 153.619C152.359 157.329 153.84 162.23 156.998 164.226C160.946 166.721 166.385 164.924 169.972 168.043C172.848 170.542 173.342 175.152 173.604 179.25C173.772 181.864 173.937 184.518 173.465 187.084C172.993 189.649 171.792 192.16 169.799 193.486C168.29 194.491 166.274 194.69 164.822 193.583C163.369 192.476 162.824 189.915 163.953 188.399C164.878 187.158 166.562 186.96 167.915 187.493C169.268 188.026 170.369 189.143 171.432 190.233"
        fill="#2F3E4F"></path>
    <path
        d="M118.025 48.6289L114.925 62.6696L103.106 59.9075C103.106 59.9075 107.756 49.7797 106.593 45.1762L118.025 48.6289Z"
        fill="#FFB6B6"></path>
    <path d="M105.8 228.034L112.865 228.034L116.226 196.08L105.799 196.081L105.8 228.034Z"
        fill="#FFB6B6"></path>
    <path
        d="M130.006 227.847C130.226 228.281 130.342 229.683 130.342 230.188C130.342 231.741 129.269 233 127.944 233H106.065C105.161 233 104.429 232.141 104.429 231.082V230.014C104.429 230.014 103.346 226.804 105.575 222.847C105.575 222.847 108.344 225.945 112.483 221.092L113.703 218.5L122.537 226.076L127.434 226.782C128.505 226.937 129.455 226.758 130.006 227.847Z"
        fill="#151515"></path>
    <path
        d="M125.091 135.617L115.431 213.665H103.312L104.923 169.113L105.771 145.687L103.312 134.537C103.312 134.537 102.19 132.058 101.245 129.054C100.18 125.663 99.3392 121.599 100.588 119.671C101.047 118.961 102.242 118.435 103.865 118.043C104.857 117.802 106.012 117.615 107.258 117.47C114.425 116.628 124.62 117.153 124.62 117.153L124.879 127.308L125.023 132.979L125.091 135.617Z"
        fill="#151515"></path>
    <path d="M93.355 224.236L100.345 225.44L107.634 194.399L97.3175 192.622L93.355 224.236Z"
        fill="#FFB6B6"></path>
    <path
        d="M117.327 228.178C117.49 228.645 117.431 230.052 117.369 230.552C117.176 232.089 115.958 233.151 114.647 232.925L93.0005 229.193C92.1067 229.039 91.4886 228.065 91.62 227.017L91.7525 225.96C91.7525 225.96 91.0798 222.599 93.7754 219.065C93.7754 219.065 96.1312 222.602 100.828 218.507L102.357 216.15L110.157 225.152L114.914 226.687C115.955 227.022 116.916 227.007 117.327 228.178Z"
        fill="#151515"></path>
    <path
        d="M125.877 122.627L124.529 136.049L117.183 164.335L105.088 210.903L92.8978 208.83L103.839 142.618L102.755 131.264C102.755 131.264 102.403 130.135 101.998 128.483C101.196 125.215 100.189 119.891 101.296 117.176C101.446 116.807 101.634 116.487 101.866 116.228C102.302 115.739 103.187 115.442 104.373 115.284C109.332 114.636 119.544 116.491 124.088 117.401L125.877 122.627Z"
        fill="#151515"></path>
    <path
        d="M116.429 58.2837L129.803 78.0906L127.402 98.7409L125.345 119.753L101.118 115.428C101.118 115.428 106.351 100.629 106.932 99.9464C107.514 99.2635 108.974 100.95 107.953 98.7409C106.932 96.5315 105.769 96.5315 106.738 95.3931C107.707 94.2548 99.1795 79.4566 99.1795 71.4883C99.1795 63.52 103.25 57.1454 103.25 57.1454L116.429 58.2837Z"
        fill="#F3F4F6"></path>
    <path
        d="M112.921 51.6212C117.908 51.6212 121.951 46.8807 121.951 41.0331C121.951 35.1854 117.908 30.4449 112.921 30.4449C107.934 30.4449 103.891 35.1854 103.891 41.0331C103.891 46.8807 107.934 51.6212 112.921 51.6212Z"
        fill="#FFB6B6"></path>
    <path
        d="M112.749 61.4857C112.749 61.4857 114.098 48.9528 114.336 45.3081C114.575 41.6635 118.956 35.9731 118.956 35.9731L122.06 38.9169C122.06 38.9169 124.687 38.9169 122.896 34.4312C121.105 29.9455 117.763 29.2446 117.763 29.2446C117.763 29.2446 117.404 23.3571 111.197 24.058C104.989 24.7589 102.243 30.6464 102.243 30.6464C102.243 30.6464 101.885 23.2169 97.9454 28.6839C94.0058 34.1508 91.7375 36.3937 95.9159 38.216C100.094 40.0383 103.198 38.6365 103.198 38.6365C103.198 38.6365 99.1392 39.6178 99.8555 42.9821C100.572 46.3464 90.4244 61.6259 95.0802 63.308C99.7361 64.9902 110.122 69.0553 111.316 66.3919C112.51 63.7285 112.749 61.4857 112.749 61.4857Z"
        fill="#151515"></path>
    <path
        d="M149.954 135.583C151.663 133.93 151.24 130.055 149.009 126.929C148.033 125.56 146.872 124.561 145.731 124.01L144.429 122.23L127.624 97.2931C127.624 97.2931 118.397 72.5592 115.64 69.8699C112.883 67.1806 109.607 68.5348 109.607 68.5348L107.032 72.1805L122.665 106.742L138.781 125.942L140.956 128.626C141.213 130.032 141.843 131.545 142.819 132.913C145.05 136.04 148.244 137.235 149.954 135.583Z"
        fill="#FFB6B6"></path>
    <path
        d="M105.461 66.3524C105.461 66.3524 109.688 91.2272 114.497 94.8943L124.081 86.4188C124.081 86.4188 124.92 86.3779 123.359 84.3782C121.798 82.3785 122.198 78.0844 122.198 78.0844C122.198 78.0844 122.9 79.115 121.372 77.6842C119.843 76.2535 121.266 66.4138 121.266 66.4138L105.461 66.3524Z"
        fill="#F3F4F6"></path>
</svg>