<svg fill="none" xmlns="http://www.w3.org/2000/svg" viewBox="0 0 361 260">
    <rect width="361" height="260" fill="#D0DDE6"></rect>
    <path
        d="M214.44 147.239H40.1044C38.486 147.237 36.9344 146.463 35.79 145.085C34.6455 143.708 34.0018 141.841 34 139.893V38.346C34.0018 36.3984 34.6455 34.5312 35.79 33.154C36.9344 31.7768 38.486 31.0022 40.1044 31H214.44C216.058 31.0022 217.61 31.7768 218.754 33.154C219.899 34.5312 220.542 36.3984 220.544 38.346V139.893C220.542 141.841 219.899 143.708 218.754 145.085C217.61 146.463 216.058 147.237 214.44 147.239ZM40.1044 31.8642C38.6764 31.8662 37.3073 32.5497 36.2975 33.7648C35.2878 34.98 34.7198 36.6275 34.7182 38.346V139.893C34.7198 141.612 35.2878 143.259 36.2975 144.475C37.3073 145.69 38.6764 146.373 40.1044 146.375H214.44C215.868 146.373 217.237 145.69 218.247 144.475C219.256 143.259 219.824 141.612 219.826 139.893V38.346C219.824 36.6275 219.256 34.98 218.247 33.7648C217.237 32.5497 215.868 31.8662 214.44 31.8642H40.1044Z"
        fill="#F3F4F6"></path>
    <path
        d="M67.4846 56.2788C69.2694 56.2788 70.7163 54.5376 70.7163 52.3898C70.7163 50.2419 69.2694 48.5007 67.4846 48.5007C65.6997 48.5007 64.2528 50.2419 64.2528 52.3898C64.2528 54.5376 65.6997 56.2788 67.4846 56.2788Z"
        fill="#F3F4F6"></path>
    <path
        d="M67.4846 70.9708C69.2694 70.9708 70.7163 69.2296 70.7163 67.0817C70.7163 64.9339 69.2694 63.1927 67.4846 63.1927C65.6997 63.1927 64.2528 64.9339 64.2528 67.0817C64.2528 69.2296 65.6997 70.9708 67.4846 70.9708Z"
        fill="#F3F4F6"></path>
    <path
        d="M67.4846 85.6627C69.2694 85.6627 70.7163 83.9216 70.7163 81.7737C70.7163 79.6258 69.2694 77.8846 67.4846 77.8846C65.6997 77.8846 64.2528 79.6258 64.2528 81.7737C64.2528 83.9216 65.6997 85.6627 67.4846 85.6627Z"
        fill="#F3F4F6"></path>
    <path
        d="M67.4846 100.355C69.2694 100.355 70.7163 98.6135 70.7163 96.4656C70.7163 94.3178 69.2694 92.5766 67.4846 92.5766C65.6997 92.5766 64.2528 94.3178 64.2528 96.4656C64.2528 98.6135 65.6997 100.355 67.4846 100.355Z"
        fill="#F3F4F6"></path>
    <path
        d="M121.886 129.739C123.671 129.739 125.118 127.997 125.118 125.85C125.118 123.702 123.671 121.961 121.886 121.961C120.101 121.961 118.654 123.702 118.654 125.85C118.654 127.997 120.101 129.739 121.886 129.739Z"
        fill="#F3F4F6"></path>
    <path
        d="M98.5454 129.739C100.33 129.739 101.777 127.997 101.777 125.85C101.777 123.702 100.33 121.961 98.5454 121.961C96.7605 121.961 95.3136 123.702 95.3136 125.85C95.3136 127.997 96.7605 129.739 98.5454 129.739Z"
        fill="#F3F4F6"></path>
    <path
        d="M170.003 129.739C171.788 129.739 173.235 127.997 173.235 125.85C173.235 123.702 171.788 121.961 170.003 121.961C168.218 121.961 166.771 123.702 166.771 125.85C166.771 127.997 168.218 129.739 170.003 129.739Z"
        fill="#F3F4F6"></path>
    <path
        d="M145.585 129.739C147.37 129.739 148.817 127.997 148.817 125.85C148.817 123.702 147.37 121.961 145.585 121.961C143.8 121.961 142.354 123.702 142.354 125.85C142.354 127.997 143.8 129.739 145.585 129.739Z"
        fill="#F3F4F6"></path>
    <path
        d="M189.932 52.8219H83.6434C83.5482 52.8219 83.4568 52.7763 83.3895 52.6953C83.3221 52.6143 83.2843 52.5044 83.2843 52.3898C83.2843 52.2752 83.3221 52.1652 83.3895 52.0842C83.4568 52.0032 83.5482 51.9576 83.6434 51.9576H189.932C190.027 51.9576 190.119 52.0032 190.186 52.0842C190.253 52.1652 190.291 52.2752 190.291 52.3898C190.291 52.5044 190.253 52.6143 190.186 52.6953C190.119 52.7763 190.027 52.8219 189.932 52.8219Z"
        fill="#F3F4F6"></path>
    <path
        d="M189.932 67.5138H83.6434C83.5482 67.5138 83.4568 67.4683 83.3895 67.3873C83.3221 67.3062 83.2843 67.1963 83.2843 67.0817C83.2843 66.9671 83.3221 66.8572 83.3895 66.7762C83.4568 66.6951 83.5482 66.6496 83.6434 66.6496H189.932C190.027 66.6496 190.119 66.6951 190.186 66.7762C190.253 66.8572 190.291 66.9671 190.291 67.0817C190.291 67.1963 190.253 67.3062 190.186 67.3873C190.119 67.4683 190.027 67.5138 189.932 67.5138Z"
        fill="#F3F4F6"></path>
    <path
        d="M189.932 82.2058H83.6434C83.5482 82.2058 83.4568 82.1603 83.3895 82.0792C83.3221 81.9982 83.2843 81.8883 83.2843 81.7737C83.2843 81.6591 83.3221 81.5492 83.3895 81.4681C83.4568 81.3871 83.5482 81.3416 83.6434 81.3416H189.932C190.027 81.3416 190.119 81.3871 190.186 81.4681C190.253 81.5492 190.291 81.6591 190.291 81.7737C190.291 81.8883 190.253 81.9982 190.186 82.0792C190.119 82.1603 190.027 82.2058 189.932 82.2058Z"
        fill="#F3F4F6"></path>
    <path
        d="M189.932 96.8978H83.6434C83.5482 96.8978 83.4568 96.8523 83.3895 96.7712C83.3221 96.6902 83.2843 96.5803 83.2843 96.4657C83.2843 96.3511 83.3221 96.2412 83.3895 96.1601C83.4568 96.0791 83.5482 96.0336 83.6434 96.0336H189.932C190.027 96.0336 190.119 96.0791 190.186 96.1601C190.253 96.2412 190.291 96.3511 190.291 96.4657C190.291 96.5803 190.253 96.6902 190.186 96.7712C190.119 96.8523 190.027 96.8978 189.932 96.8978Z"
        fill="#F3F4F6"></path>
    <path
        d="M103.752 111.59H93.3386C92.8626 111.589 92.4063 111.361 92.0697 110.956C91.7331 110.551 91.5438 110.002 91.5432 109.429V97.762C91.5438 97.1892 91.7331 96.64 92.0697 96.235C92.4063 95.8299 92.8626 95.6021 93.3386 95.6014H103.752C104.228 95.6021 104.684 95.8299 105.021 96.235C105.358 96.64 105.547 97.1892 105.547 97.762V109.429C105.547 110.002 105.358 110.551 105.021 110.956C104.684 111.361 104.228 111.589 103.752 111.59Z"
        fill="#E1661A"></path>
    <path
        d="M127.093 111.59H116.679C116.203 111.589 115.747 111.361 115.41 110.956C115.074 110.551 114.884 110.002 114.884 109.429V83.0701C114.884 82.4972 115.074 81.9481 115.41 81.543C115.747 81.138 116.203 80.9101 116.679 80.9095H127.093C127.569 80.9101 128.025 81.138 128.361 81.543C128.698 81.9481 128.887 82.4972 128.888 83.0701V109.429C128.887 110.002 128.698 110.551 128.361 110.956C128.025 111.361 127.569 111.589 127.093 111.59Z"
        fill="#E1661A"></path>
    <path
        d="M150.792 111.59H140.379C139.903 111.589 139.446 111.361 139.11 110.956C138.773 110.551 138.584 110.002 138.583 109.429V68.3781C138.584 67.8053 138.773 67.2561 139.11 66.8511C139.446 66.446 139.903 66.2182 140.379 66.2175H150.792C151.268 66.2182 151.724 66.446 152.061 66.8511C152.398 67.2561 152.587 67.8053 152.588 68.3781V109.429C152.587 110.002 152.398 110.551 152.061 110.956C151.724 111.361 151.268 111.589 150.792 111.59Z"
        fill="#E1661A"></path>
    <path
        d="M175.21 111.59H164.796C164.32 111.589 163.864 111.361 163.527 110.956C163.191 110.551 163.001 110.002 163.001 109.429V54.1182C163.001 53.5454 163.191 52.9962 163.527 52.5912C163.864 52.1861 164.32 51.9583 164.796 51.9576H175.21C175.686 51.9583 176.142 52.1861 176.479 52.5912C176.815 52.9962 177.005 53.5454 177.005 54.1182V109.429C177.005 110.002 176.815 110.551 176.479 110.956C176.142 111.361 175.686 111.589 175.21 111.59Z"
        fill="#E1661A"></path>
    <path
        d="M238.179 118.745C237.77 118.743 237.363 118.694 236.963 118.598C236.89 118.58 236.816 118.562 236.743 118.541L148.805 93.9021C147.85 93.6344 147.215 92.9113 147.329 92.2199C147.377 92.0163 147.471 91.8326 147.6 91.6891C147.729 91.5456 147.889 91.4478 148.061 91.4065C148.486 91.2657 148.932 91.2537 149.362 91.3717L237.846 113.609C239.839 114.11 241.222 115.581 240.995 116.959C240.876 117.68 240.349 118.239 239.509 118.533C239.076 118.678 238.628 118.749 238.179 118.745Z"
        fill="#2F2E41"></path>
    <path
        d="M219.55 115.336C220.005 115.658 220.513 115.856 221.039 115.915C221.564 115.975 222.095 115.896 222.592 115.683C223.089 115.47 223.541 115.128 223.917 114.681C224.293 114.235 224.582 113.695 224.766 113.099L237.595 113.421L234.041 106.632L222.403 107.367C221.551 107.063 220.636 107.145 219.831 107.598C219.026 108.051 218.387 108.844 218.035 109.827C217.684 110.809 217.644 111.912 217.923 112.927C218.202 113.943 218.781 114.8 219.55 115.336Z"
        fill="#FFB8B8"></path>
    <path
        d="M225.122 112.87L225.056 108.138C225.051 107.649 225.198 107.176 225.468 106.812C225.739 106.448 226.112 106.218 226.516 106.169L249.57 103.492L268.777 95.9132C269.357 95.6845 269.969 95.5967 270.577 95.655C271.185 95.7133 271.778 95.9165 272.32 96.2528C272.862 96.5891 273.344 97.0518 273.736 97.614C274.128 98.1761 274.424 98.8266 274.606 99.5275C274.787 100.228 274.851 100.966 274.794 101.697C274.737 102.428 274.56 103.138 274.272 103.785C273.985 104.433 273.593 105.005 273.121 105.469C272.648 105.933 272.103 106.28 271.518 106.488L250.258 114.063L226.779 114.781C226.424 114.791 226.076 114.661 225.789 114.41C225.501 114.159 225.29 113.801 225.188 113.392C225.147 113.222 225.125 113.047 225.122 112.87Z"
        fill="#151515"></path>
    <path d="M259.238 234.865L254.836 234.864L252.742 214.43L259.239 214.431L259.238 234.865Z"
        fill="#FFB8B8"></path>
    <path
        d="M260.361 240L246.166 239.999V239.783C246.166 238.91 246.309 238.046 246.587 237.239C246.864 236.432 247.271 235.699 247.785 235.082C248.298 234.465 248.907 233.975 249.577 233.641C250.247 233.307 250.966 233.135 251.691 233.135H251.692L260.361 233.135L260.361 240Z"
        fill="#151515"></path>
    <path d="M272.165 234.865L267.763 234.864L265.669 214.43L272.166 214.431L272.165 234.865Z"
        fill="#FFB8B8"></path>
    <path
        d="M273.288 240L259.093 239.999V239.783C259.093 238.91 259.236 238.046 259.514 237.239C259.791 236.432 260.198 235.699 260.712 235.082C261.225 234.465 261.834 233.975 262.504 233.641C263.174 233.307 263.893 233.135 264.618 233.135H264.619L273.288 233.135L273.288 240Z"
        fill="#151515"></path>
    <path
        d="M275.12 152.284L274.069 227.34C274.065 227.578 274.021 227.812 273.939 228.028C273.857 228.244 273.739 228.438 273.592 228.597C273.445 228.756 273.272 228.876 273.085 228.951C272.897 229.026 272.699 229.054 272.502 229.032L267.351 228.469C267.013 228.432 266.697 228.252 266.459 227.961C266.22 227.671 266.075 227.288 266.049 226.881L263.033 180.063C263.026 179.953 262.984 179.85 262.916 179.776C262.848 179.702 262.76 179.662 262.668 179.664C262.576 179.667 262.489 179.711 262.423 179.788C262.358 179.865 262.32 179.97 262.316 180.08L260.809 227.97C260.795 228.416 260.637 228.839 260.37 229.149C260.102 229.459 259.745 229.633 259.374 229.633H253.849C253.483 229.633 253.131 229.465 252.865 229.163C252.598 228.862 252.437 228.449 252.415 228.01L248.548 151.852L271.529 144.938L275.12 152.284Z"
        fill="#151515"></path>
    <path
        d="M258.451 81.8072C263.322 81.8072 267.27 77.0555 267.27 71.194C267.27 65.3325 263.322 60.5807 258.451 60.5807C253.58 60.5807 249.631 65.3325 249.631 71.194C249.631 77.0555 253.58 81.8072 258.451 81.8072Z"
        fill="#FFB8B8"></path>
    <path
        d="M247.761 154.517C247.608 154.339 247.486 154.127 247.402 153.892C247.318 153.657 247.273 153.405 247.271 153.149L246.676 101.968C246.64 99.3645 247.291 96.8143 248.535 94.6838C249.779 92.5532 251.552 90.952 253.6 90.1101C254.426 85.5991 258.824 85.034 261.387 85.1015C262.027 85.1181 262.654 85.3201 263.215 85.6904C263.777 86.0607 264.255 86.5884 264.611 87.2288L266.449 90.546L270.499 93.4033C272.374 94.72 273.852 96.7192 274.722 99.1125C275.591 101.506 275.806 104.17 275.336 106.72L274.713 110.133C272.517 122.215 272.726 134.75 275.322 146.716L276.577 152.474C276.642 152.774 276.647 153.088 276.591 153.39C276.535 153.693 276.42 153.975 276.255 154.213C276.09 154.451 275.88 154.638 275.642 154.759C275.405 154.879 275.147 154.929 274.89 154.906L273.433 154.771C273.054 154.736 272.698 154.542 272.427 154.223C272.155 153.904 271.986 153.48 271.949 153.026L271.708 150.123C271.703 150.07 271.682 150.021 271.649 149.985C271.616 149.949 271.574 149.929 271.529 149.929C271.484 149.929 271.442 149.949 271.409 149.985C271.375 150.021 271.355 150.07 271.35 150.123L271.117 152.933C271.077 153.408 270.894 153.849 270.603 154.172C270.311 154.494 269.93 154.677 269.534 154.684L248.911 155.066C248.903 155.066 248.894 155.066 248.886 155.066C248.465 155.067 248.061 154.87 247.761 154.517Z"
        fill="#151515"></path>
    <path
        d="M259.141 77.3117C259.177 78.812 260.042 79.6799 261.105 80.4658C262.168 81.2516 263.41 81.5924 264.627 81.921C264.79 82.0255 264.973 82.0775 265.158 82.0721C265.343 82.0666 265.524 82.0038 265.683 81.8898C265.842 81.7759 265.974 81.6145 266.066 81.4213C266.158 81.2281 266.207 81.0096 266.209 80.7869L267.325 75.6779C267.72 74.0459 268.007 72.3789 268.184 70.6926C268.453 67.4477 267.814 63.9571 265.932 61.6111C264.05 59.265 260.786 58.4315 258.531 60.2392C255.854 56.1255 243.62 65.2141 246.638 68.0747C247.175 68.5836 247.996 67.9396 248.677 67.8772C249.359 67.8148 250.122 67.9591 250.555 68.5955C251.121 69.427 250.874 70.6655 251.107 71.7028C251.204 72.0677 251.359 72.4061 251.565 72.6984C251.771 72.9907 252.022 73.2311 252.305 73.4058C252.589 73.5805 252.898 73.6859 253.215 73.7161C253.532 73.7464 253.851 73.7007 254.154 73.5818C254.717 73.2477 255.247 72.8376 255.734 72.3595C256.256 71.9405 256.917 71.6309 257.505 71.8952C258.281 72.2435 258.556 73.3862 258.626 74.3788C258.745 75.3688 258.916 76.3485 259.141 77.3117Z"
        fill="#151515"></path>
    <path opacity="0.2"
        d="M257.081 105.756L255.645 126.93L248.104 148.968L259.235 127.362L257.081 105.756Z"
        fill="black"></path>
    <path
        d="M246.341 157.175C246.752 156.777 247.086 156.275 247.319 155.705C247.553 155.136 247.679 154.511 247.69 153.876C247.701 153.241 247.596 152.611 247.382 152.029C247.169 151.448 246.852 150.931 246.455 150.513L251.259 136.194L244.722 137.783L241.163 151.136C240.624 151.987 240.363 153.046 240.429 154.112C240.495 155.179 240.885 156.179 241.523 156.923C242.161 157.667 243.004 158.104 243.892 158.15C244.78 158.197 245.651 157.85 246.341 157.175Z"
        fill="#FFB8B8"></path>
    <path
        d="M245.991 150.86L242.291 149.255C241.91 149.087 241.595 148.754 241.407 148.32C241.22 147.887 241.175 147.385 241.28 146.913L247.383 120.027L248.314 95.7281C248.342 94.9947 248.491 94.2752 248.752 93.6117C249.013 92.9481 249.381 92.3537 249.835 91.8629C250.289 91.3721 250.819 90.9948 251.395 90.7528C251.971 90.5109 252.582 90.4092 253.191 90.4536C253.8 90.4981 254.395 90.6877 254.943 91.0116C255.49 91.3356 255.979 91.7872 256.38 92.3404C256.781 92.8935 257.087 93.5372 257.28 94.2338C257.472 94.9305 257.548 95.6663 257.502 96.3984L255.84 123.005L248.063 149.675C247.945 150.078 247.721 150.423 247.424 150.657C247.127 150.891 246.774 151.001 246.42 150.971C246.274 150.957 246.129 150.92 245.991 150.86Z"
        fill="#151515"></path>
    <path
        d="M189.932 111.59H83.6434C83.5482 111.59 83.4568 111.544 83.3895 111.463C83.3221 111.382 83.2843 111.272 83.2843 111.158C83.2843 111.043 83.3221 110.933 83.3895 110.852C83.4568 110.771 83.5482 110.726 83.6434 110.726H189.932C190.027 110.726 190.119 110.771 190.186 110.852C190.253 110.933 190.291 111.043 190.291 111.158C190.291 111.272 190.253 111.382 190.186 111.463C190.119 111.544 190.027 111.59 189.932 111.59Z"
        fill="#9F99EA"></path>
</svg>