<svg fill="none" xmlns="http://www.w3.org/2000/svg" viewBox="0 0 361 260">
    <rect width="361" height="260" fill="#E4E5E9"></rect>
    <path
        d="M193.399 243.148C190.159 242.917 189.314 243.556 184.412 243.148H175.425L176.594 221.641L190.742 227.31L261.051 229.036L261.01 229.156C260.978 229.248 257.856 238.378 260.296 241.836L260.398 241.979L260.2 241.981L195.703 242.573C194.999 242.579 194.098 243.198 193.399 243.148Z"
        fill="#F2F2F2"></path>
    <path
        d="M197.046 243.429C190.787 242.984 184.306 245.417 178.897 242.67L174.574 242.932L174.561 242.896C174.528 242.796 172.485 226.725 176.614 220.494L176.796 220.219L176.938 221.695L175.577 241.715L178.594 240.708C185.921 244.157 194.636 241.879 203.022 241.848L260.095 241.637C261.291 241.633 262.287 242.449 262.319 243.458L262.322 243.556L200.493 243.552C199.34 243.552 198.191 243.511 197.046 243.429Z"
        fill="#CCCCCC"></path>
    <path
        d="M257.087 233.374L192.86 232.097L192.794 232.073L177.619 226.386L177.906 225.621L193.015 231.284L257.103 232.557L257.087 233.374Z"
        fill="#E6E6E6"></path>
    <path
        d="M256.744 236.813L192.517 235.536L192.452 235.512L177.277 229.825L177.563 229.06L192.673 234.723L256.761 235.996L256.744 236.813Z"
        fill="#E6E6E6"></path>
    <path
        d="M256.402 240.253L192.174 238.976L192.109 238.951L176.934 233.264L177.221 232.498L192.33 238.162L256.418 239.436L256.402 240.253Z"
        fill="#E6E6E6"></path>
    <path
        d="M197.49 229.259C191.535 228.856 185.729 227.218 180.442 224.448L175.99 222.087L176.106 220.92C176.139 220.748 176.233 220.595 176.372 220.49C176.511 220.384 176.683 220.333 176.857 220.347L177.25 220.352L237.148 221.233C241.068 221.282 244.953 221.987 248.64 223.319L261.691 228.057L261.684 228.126C261.574 229.226 260.465 230.076 259.159 230.061L200.158 229.369C199.266 229.359 198.376 229.322 197.49 229.259Z"
        fill="#E6E6E6"></path>
    <path
        d="M261.565 228.31L261.552 228.309L189.724 226.663L189.674 226.641L176.724 220.643L176.855 220.443L177.249 220.448L189.844 226.284L261.006 227.913L261.576 227.926L261.565 228.31Z"
        fill="#CCCCCC"></path>
    <path
        d="M205.725 220.867L204.813 220.854L184.228 220.55L183.253 220.536C187.956 225.544 198.356 226.797 213.6 224.857L205.725 220.867Z"
        fill="#CCCCCC"></path>
    <path
        d="M263.601 101.101L264.857 104.022L262.804 114.396L241.867 111.485L242.034 98.835L242.454 96.0645L263.601 101.101Z"
        fill="#FFB6B6"></path>
    <path d="M274.418 235.55H269.799L267.6 217.733H274.418V235.55Z" fill="#FFB6B6"></path>
    <path
        d="M260.678 241.58C260.679 242.103 260.887 242.605 261.257 242.975C261.627 243.345 262.128 243.553 262.652 243.554H271.44L272.955 240.427L273.543 243.554H276.855L275.924 232.384L274.419 232.296L269.36 231.995L268.544 231.944V235.108L261.531 239.954C261.267 240.136 261.052 240.379 260.904 240.662C260.756 240.945 260.678 241.26 260.678 241.58Z"
        fill="#151515"></path>
    <path d="M231.723 215.125H227.103L224.386 188.894L233.066 188.376L231.723 215.125Z"
        fill="#FFB6B6"></path>
    <path
        d="M217.982 221.155C217.983 221.678 218.191 222.18 218.561 222.55C218.931 222.92 219.432 223.128 219.956 223.129H228.744L230.259 220.002L230.847 223.129H234.159L233.228 211.959L231.885 211.881L226.738 211.57L225.848 211.519V214.683L218.835 219.529C218.572 219.711 218.357 219.954 218.208 220.237C218.06 220.52 217.982 220.835 217.982 221.155Z"
        fill="#151515"></path>
    <path
        d="M276.379 220.185H276.361L275.473 191.215C276.048 190.106 276.339 188.872 276.322 187.623C276.305 186.374 275.979 185.149 275.373 184.057L275.246 183.826L275.576 182.298C275.999 180.334 275.805 178.287 275.019 176.437L274.191 149.414C277.152 130.225 263.041 117.71 263.041 117.71L264.338 107.653L241.515 108.172L241.903 117.71L237.365 133.302C234.977 156.57 218.903 171.195 221.346 193.446C221.351 193.51 221.342 193.574 221.318 193.634C221.071 194.388 220.983 195.185 221.062 195.975C221.141 196.764 221.385 197.528 221.777 198.218C221.879 198.394 221.949 198.586 221.984 198.787C222.487 202.687 222.553 197.753 223.22 201.62L223.09 201.685C222.623 201.846 222.422 202.494 222.642 203.131C222.862 203.768 223.419 204.154 223.887 203.993L236.087 204.123C236.555 203.962 236.755 203.315 236.535 202.677C236.315 202.04 235.758 201.654 235.291 201.816L234.532 202.199L235.801 198.045L236.247 197.629C236.46 197.43 236.625 197.185 236.731 196.913C236.836 196.641 236.878 196.349 236.855 196.058C236.831 195.767 236.742 195.485 236.594 195.234C236.446 194.982 236.243 194.768 236.001 194.606L237.266 187.854L237.086 182.748L237.456 176.955L253.465 153.758L259.942 185.8L266.557 220.508C266.403 220.647 266.287 220.824 266.221 221.02C266.154 221.217 266.139 221.428 266.178 221.632C266.239 221.918 266.397 222.173 266.625 222.354C266.854 222.536 267.138 222.632 267.43 222.627H276.411C276.6 222.627 276.785 222.583 276.954 222.499C277.123 222.416 277.27 222.294 277.384 222.144C277.498 221.994 277.576 221.82 277.611 221.635C277.647 221.45 277.639 221.26 277.589 221.078C277.514 220.817 277.354 220.588 277.135 220.427C276.917 220.266 276.651 220.181 276.379 220.185Z"
        fill="#151515"></path>
    <path
        d="M268.392 51.8058C268.393 53.6554 267.94 55.4769 267.072 57.1105C266.204 58.744 264.949 60.1395 263.416 61.1746C261.883 62.2097 260.12 62.8527 258.28 63.0471C256.441 63.2415 254.582 62.9815 252.867 62.2897C251.151 61.598 249.632 60.4957 248.442 59.0796C247.252 57.6636 246.428 55.9771 246.042 54.1682C245.656 52.3593 245.72 50.4833 246.228 48.7049C246.736 46.9264 247.673 45.3 248.957 43.9682L249.011 43.9141C249.101 43.8191 249.192 43.7242 249.287 43.6338L249.288 43.6334L249.29 43.6325L249.291 43.631L249.291 43.6292C249.421 43.5346 249.54 43.4271 249.648 43.3083C251.174 41.1768 252.903 39.3894 257.093 40.506C263.124 42.1136 268.392 45.5638 268.392 51.8058Z"
        fill="#151515"></path>
    <path
        d="M206.32 46.9684C206.295 47.573 206.402 48.1758 206.635 48.7345C206.867 49.2931 207.219 49.7939 207.666 50.2017C208.113 50.6095 208.645 50.9143 209.222 51.0946C209.8 51.275 210.41 51.3265 211.01 51.2455L240.151 75.1617L244.602 67.3381L214.557 46.2893C214.355 45.291 213.793 44.4016 212.978 43.7899C212.163 43.1782 211.153 42.8865 210.137 42.9703C209.122 43.054 208.173 43.5072 207.469 44.2441C206.766 44.981 206.357 45.9503 206.32 46.9684Z"
        fill="#FFB6B6"></path>
    <path
        d="M252.456 82.2149C252.456 82.2149 252.447 81.3536 247.814 81.3867C242.064 81.4278 226.227 73.1721 227.612 65.397C226.955 65.6942 226.217 65.7642 225.515 65.5958C224.813 65.4275 224.187 65.0304 223.736 64.4672L231.446 57.0441C233.865 57.2075 233.89 58.8264 233.682 59.756L239.879 62.2182L256.017 71.49L253.167 80.8032L252.456 82.2149Z"
        fill="#CCCCCC"></path>
    <path
        d="M254.309 63.8955C259.542 63.8955 263.784 59.6533 263.784 54.4202C263.784 49.1871 259.542 44.9449 254.309 44.9449C249.076 44.9449 244.833 49.1871 244.833 54.4202C244.833 59.6533 249.076 63.8955 254.309 63.8955Z"
        fill="#FFB7B7"></path>
    <path
        d="M241.286 101.549C240.763 102.248 240.495 103.105 240.529 103.977C240.563 104.85 240.895 105.684 241.471 106.34C241.476 106.618 241.518 106.886 241.911 107.882C241.963 107.979 242.023 108.07 242.092 108.156C242.105 108.176 242.119 108.196 242.134 108.216C242.548 108.752 243.125 109.141 243.778 109.323L261.123 114.164L263.416 114.803L263.819 114.915L264.041 111.783C264.557 111.355 264.903 110.757 265.016 110.097C265.129 109.437 265.002 108.758 264.658 108.183L264.338 107.655L266.2 102.647L266.381 102.152L271.129 89.3703L271.134 88.5178L271.143 87.6377L271.19 81.4948C271.192 79.5587 270.745 77.6485 269.885 75.914C269.025 74.1794 267.775 72.6678 266.233 71.4975C264.828 70.4241 263.208 69.6657 261.484 69.2739L261.447 69.2692L259.571 66.7444L251.959 67.5042L251.329 68.7967L250.565 70.3533L245.048 73.6378L243.162 78.0203L241.888 80.9852C239.915 82.4028 238.738 84.2234 238.4 86.3915C237.677 90.9963 240.901 95.6058 241.286 96.1339L241.383 101.42L241.286 101.549Z"
        fill="#CCCCCC"></path>
    <path
        d="M264.225 56.9042C264.139 56.8907 264.053 56.8726 263.967 56.859C262.489 56.5969 261.011 56.3393 259.538 56.0725L259.402 52.7324L257.617 55.7245C253.544 57.0759 249.734 56.3121 246.15 54.6262C244.968 54.0649 243.82 53.4325 242.715 52.7324C242.351 47.0834 244.635 43.467 248.884 43.8462C249.04 43.8601 249.151 43.7016 249.287 43.6338L249.288 43.6334L249.29 43.6325L249.291 43.631L249.291 43.6292C249.522 43.5208 249.757 43.4168 249.992 43.3219C251.832 42.6028 253.838 42.4207 255.778 42.7968C257.717 43.1728 259.51 44.0916 260.948 45.4463C263.841 48.208 265.143 52.7685 264.225 56.9042Z"
        fill="#151515"></path>
    <path
        d="M263.967 56.859C263.967 56.859 261.161 46.3819 249.129 43.9637C249.115 43.9593 249.07 43.9412 249.011 43.9141C248.975 43.8914 248.93 43.8688 248.885 43.8463C249.02 43.7694 249.151 43.7017 249.287 43.6338L249.289 43.6335L249.29 43.6325L249.291 43.631L249.291 43.6293C249.409 43.5208 249.526 43.4123 249.648 43.3084L249.992 43.3219C249.992 43.3219 262.065 41.41 263.967 56.859Z"
        fill="#FD6584"></path>
    <path
        d="M268.596 122.904C268.373 123.095 268.103 123.22 267.813 123.267C267.524 123.314 267.227 123.28 266.956 123.17C266.415 122.941 265.936 122.59 265.554 122.144C263.995 120.509 262.881 118.502 262.319 116.315L262.839 115.39C262.635 114.25 262.827 113.074 263.383 112.058C263.939 111.042 264.826 110.246 265.897 109.804C266.506 109.545 267.181 109.487 267.826 109.636C268.145 109.715 268.438 109.88 268.672 110.111C268.906 110.343 269.073 110.634 269.155 110.953C269.355 111.942 268.531 112.835 267.697 113.403C266.243 114.389 264.563 114.991 262.813 115.15C264.953 116.357 266.803 118.017 268.233 120.015C268.564 120.431 268.808 120.91 268.951 121.423C269.019 121.68 269.023 121.95 268.961 122.208C268.899 122.467 268.774 122.706 268.596 122.904Z"
        fill="#151515"></path>
    <path
        d="M191.059 112.929V113.195C190.486 112.524 189.902 111.859 189.323 111.193C189.08 110.916 188.837 110.638 188.594 110.36C187.564 109.191 186.529 108.026 185.487 106.865C184.44 105.708 183.393 104.551 182.334 103.4C182.079 103.122 181.825 102.844 181.564 102.566C181.356 102.333 181.129 102.116 180.887 101.918C180.643 101.715 180.362 101.56 180.06 101.461C179.712 101.365 179.345 101.361 178.995 101.45C178.596 101.542 178.214 101.687 177.826 101.808C177.427 101.941 177.034 102.069 176.635 102.196C175.836 102.456 175.043 102.717 174.245 102.977C174.235 102.981 174.225 102.983 174.215 102.983C174.204 102.983 174.194 102.981 174.184 102.977C174.175 102.973 174.166 102.967 174.159 102.959C174.151 102.952 174.146 102.943 174.142 102.934L174.141 102.931C174.136 102.92 174.134 102.908 174.135 102.896C174.135 102.884 174.138 102.873 174.144 102.862C174.149 102.852 174.157 102.843 174.167 102.835C174.176 102.828 174.187 102.823 174.199 102.821C174.395 102.757 174.598 102.694 174.8 102.63C175.605 102.364 176.403 102.103 177.207 101.843C177.607 101.71 178.006 101.583 178.405 101.455C178.775 101.315 179.166 101.237 179.562 101.224C180.209 101.27 180.815 101.555 181.263 102.022C181.512 102.254 181.738 102.497 181.963 102.746C182.23 103.035 182.496 103.324 182.762 103.614C183.832 104.782 184.895 105.955 185.95 107.132C187.009 108.312 188.058 109.494 189.098 110.678C189.173 110.765 189.248 110.852 189.323 110.939C189.908 111.598 190.48 112.264 191.059 112.929Z"
        fill="white"></path>
    <path
        d="M180.797 102.984C180.579 102.703 180.287 102.486 179.955 102.358L179.626 102.37C182.208 106.388 185.592 109.831 189.564 112.483C186.642 109.317 183.72 106.151 180.797 102.984Z"
        fill="white"></path>
    <path
        d="M234.691 144.745L221.583 74.5612C221.359 73.4043 220.748 72.3578 219.851 71.5935C218.954 70.8291 217.824 70.3922 216.646 70.3545C216.54 70.3521 216.434 70.3521 216.328 70.3545L207.399 70.6748L206.438 70.7101L201.981 70.8703L201.02 70.9033L198.154 71.0069L140.352 73.082C140.265 73.0867 140.175 73.0867 140.088 73.0843L127.136 72.8135L122.342 72.7145L122.189 72.7122L118.651 72.6368L87.8238 71.9961L79.6505 71.8242L75.6204 71.7418L74.6547 71.7206L70.0593 71.6263L69.0959 71.6051L64.3945 71.5086L63.4312 71.4874L58.2657 71.379L57.4555 71.3625L52.8483 71.266L52.1205 71.2518H52.0145C50.7914 71.2568 49.6094 71.6941 48.6775 72.4863C47.7457 73.2785 47.1239 74.3747 46.9221 75.5811L35.0673 148.41C34.9469 149.148 34.9884 149.903 35.1888 150.623C35.3892 151.344 35.7437 152.012 36.2279 152.581C36.7121 153.151 37.3142 153.608 37.9927 153.922C38.6712 154.235 39.4098 154.398 40.1574 154.398H108.238C109.24 154.401 110.215 154.722 111.022 155.316L112.313 156.273C113.203 156.927 114.277 157.282 115.382 157.286C128.531 153.815 142.355 153.815 155.504 157.286C156.182 157.287 156.854 157.155 157.48 156.895C158.106 156.635 158.675 156.254 159.153 155.773C159.97 154.956 161.061 154.471 162.215 154.41L229.89 150.843C230.624 150.805 231.341 150.61 231.994 150.272C232.646 149.934 233.219 149.461 233.674 148.883C234.128 148.306 234.454 147.638 234.63 146.924C234.805 146.211 234.826 145.468 234.691 144.745Z"
        fill="#CCCCCC"></path>
    <path
        d="M216.145 133.801C216.058 136.179 215.03 138.426 213.287 140.047C211.545 141.667 209.23 142.53 206.851 142.445C202.921 142.306 198.232 142.236 193.142 142.343C176.52 142.698 155.638 144.986 143.076 153.213C141.497 154.249 139.632 154.761 137.745 154.675C137.606 154.667 137.472 154.659 137.333 154.647C135.377 154.468 133.534 153.651 132.088 152.322C125.168 145.99 109.297 138.323 72.9696 137.784C72.8184 137.784 72.6713 137.776 72.5243 137.767C71.3477 137.693 70.1972 137.388 69.1386 136.869C68.08 136.35 67.134 135.628 66.3548 134.743C65.5755 133.858 64.9783 132.829 64.5972 131.713C64.2161 130.597 64.0586 129.418 64.1337 128.241L67.704 71.5782L68.2391 63.0854L69.1787 48.2283C69.2734 46.7321 69.9342 45.3281 71.0268 44.3015C72.1194 43.2749 73.5619 42.7028 75.0611 42.7013H75.0978L96.7401 42.828C105.858 43.2405 113.41 44.402 119.396 46.3125C121.44 46.9465 123.429 47.7471 125.343 48.7063C127.957 49.9736 130.306 51.7274 132.263 53.8738C133.483 55.245 135.146 56.1431 136.961 56.4106C137.243 56.4526 137.526 56.4785 137.811 56.4882C139.485 56.5575 141.137 56.0847 142.521 55.1402C156.659 45.667 185.47 44.9481 201.381 45.3566C203.607 45.4085 205.733 46.2868 207.346 47.8205C208.959 49.3543 209.943 51.4335 210.107 53.6532L210.752 62.1051L211.394 70.5324L215.095 119.238L216.124 132.788C216.149 133.125 216.156 133.463 216.145 133.801Z"
        fill="#F2F2F2"></path>
    <path
        d="M78.3539 62.6401C91.3961 58.479 105.946 59.5807 118.302 65.4428C121.827 67.1067 125.157 69.1574 128.229 71.5571C129.098 72.2391 130.335 71.0191 129.457 70.3297C118.108 61.5274 103.849 57.346 89.5442 58.6254C85.5867 58.9796 81.6796 59.7645 77.8924 60.9663C76.8322 61.3045 77.2854 62.981 78.3539 62.6401Z"
        fill="#D0D0D0"></path>
    <path
        d="M150.121 72.2304C162.246 65.8569 176.767 64.4671 189.951 68.0849C193.71 69.1139 197.342 70.5582 200.781 72.391C201.766 72.9167 202.644 71.4188 201.657 70.8922C189.092 64.1874 174.008 62.6439 160.287 66.3815C156.459 67.426 152.756 68.8846 149.245 70.7316C148.255 71.2515 149.132 72.7502 150.121 72.2304Z"
        fill="#D0D0D0"></path>
    <path
        d="M150.121 83.8025C162.246 77.429 176.767 76.0391 189.951 79.657C193.71 80.686 197.342 82.1302 200.781 83.9631C201.766 84.4888 202.644 82.9909 201.657 82.4643C189.092 75.7595 174.008 74.216 160.287 77.9535C156.459 78.998 152.756 80.4567 149.245 82.3037C148.255 82.8236 149.132 84.3223 150.121 83.8025Z"
        fill="#D0D0D0"></path>
    <path
        d="M202.082 94.7538C202.091 94.6048 202.055 94.4565 201.979 94.3282C201.902 94.1999 201.789 94.0975 201.654 94.0343C191.588 88.7634 180.175 86.6256 168.883 87.896C168.813 87.9017 168.747 87.913 168.671 87.9186H168.668C168.599 87.9249 168.53 87.9353 168.461 87.9498C161.745 88.7226 155.23 90.7307 149.245 93.8728C149.114 93.9506 149.006 94.0609 148.931 94.193C148.856 94.3251 148.817 94.4744 148.817 94.6263V116.214C148.819 116.347 148.852 116.477 148.912 116.596C148.972 116.714 149.058 116.818 149.164 116.898C149.27 116.978 149.392 117.033 149.523 117.059C149.653 117.085 149.788 117.08 149.916 117.047C150.182 116.97 150.449 116.896 150.721 116.826C156.772 115.188 162.984 114.216 169.246 113.928C169.379 113.922 169.512 113.917 169.651 113.911C174.752 113.692 179.861 113.875 184.933 114.46C185.039 114.466 185.145 114.478 185.25 114.494C185.511 114.523 185.777 114.554 186.038 114.588C186.143 114.599 186.242 114.61 186.338 114.627C187.352 114.755 188.358 114.899 189.366 115.055C190.822 115.287 192.278 115.546 193.734 115.831C193.825 115.848 193.918 115.871 194.012 115.888C196.348 116.353 198.674 116.891 200.988 117.486C201.117 117.519 201.252 117.522 201.382 117.496C201.513 117.47 201.636 117.414 201.741 117.333C201.847 117.253 201.933 117.149 201.993 117.03C202.053 116.911 202.085 116.78 202.087 116.647V94.7877C202.088 94.7761 202.086 94.7645 202.082 94.7538Z"
        fill="#151515"></path>
    <path
        d="M170.244 89.0731C169.608 88.7616 168.879 88.6976 168.199 88.8934C167.898 89.0061 167.623 89.1774 167.389 89.3973C167.155 89.6173 166.968 89.8815 166.837 90.1746C166.601 90.7366 166.45 91.3305 166.388 91.9369C166.352 92.1754 166.35 92.4764 166.59 92.5878C166.677 92.6193 166.771 92.6265 166.862 92.6085C166.952 92.5906 167.037 92.5481 167.105 92.4857C167.229 92.3637 167.331 92.2213 167.407 92.0648C167.823 91.4172 168.396 90.8849 169.072 90.5171C169.749 90.1494 170.507 89.958 171.277 89.9608L171.918 90.2162C171.413 89.7621 170.851 89.3776 170.244 89.0731Z"
        fill="#FF6582"></path>
    <path
        d="M177.18 94.0487C176.683 93.3166 176.093 92.5349 175.17 92.2958C174.102 92.019 173.004 92.569 172.073 93.1117C169.303 94.7244 166.622 96.4831 164.039 98.3804L164.042 98.4088L170.037 98.0408C171.48 97.9522 172.974 97.8513 174.25 97.2434C174.708 96.9562 175.22 96.7655 175.754 96.6831C176.086 96.7011 176.411 96.7845 176.71 96.9287C177.009 97.0728 177.277 97.2748 177.497 97.5229C180.26 100.142 181.06 104.146 184.159 106.447C182.187 102.125 179.852 97.9771 177.18 94.0487Z"
        fill="white"></path>
    <path
        d="M169.652 113.91C169.513 113.916 169.38 113.922 169.247 113.928C168.281 113.581 167.291 113.274 166.29 113.008C165.642 112.834 164.983 112.678 164.323 112.545C163.577 112.383 162.825 112.256 162.072 112.146C160.64 111.937 159.197 111.816 157.75 111.781C157.739 111.782 157.728 111.781 157.718 111.778C157.707 111.775 157.697 111.769 157.689 111.762C157.681 111.754 157.675 111.745 157.67 111.735C157.666 111.725 157.663 111.714 157.663 111.703C157.663 111.692 157.666 111.681 157.67 111.671C157.675 111.661 157.681 111.652 157.689 111.645C157.697 111.637 157.707 111.632 157.718 111.628C157.728 111.625 157.739 111.624 157.75 111.625C157.935 111.625 158.12 111.631 158.3 111.642C159.75 111.696 161.195 111.837 162.628 112.065C163.374 112.186 164.121 112.331 164.861 112.493C165.532 112.643 166.204 112.811 166.863 112.996C167.806 113.262 168.736 113.567 169.652 113.91Z"
        fill="white"></path>
    <path
        d="M186.339 114.628C186.241 114.611 186.142 114.599 186.038 114.587C185.639 114.258 185.234 113.945 184.812 113.639C184.285 113.257 183.741 112.898 183.186 112.562C181.955 111.816 180.671 111.162 179.344 110.607C177.245 109.733 175.072 109.047 172.852 108.558C170.319 108.003 167.755 107.602 165.174 107.355C162.593 107.089 160.001 106.927 157.409 106.765C157.299 106.759 157.293 106.597 157.409 106.603C157.733 106.626 158.057 106.643 158.387 106.666C161.008 106.828 163.629 107.014 166.233 107.309C168.814 107.585 171.375 108.03 173.899 108.639C176.054 109.17 178.157 109.893 180.183 110.798C181.348 111.321 182.477 111.922 183.562 112.597C184.25 113.031 184.916 113.494 185.552 113.986C185.818 114.194 186.084 114.402 186.339 114.628Z"
        fill="white"></path>
    <path
        d="M185.251 114.495C185.146 114.478 185.04 114.466 184.933 114.46C184.812 114.362 184.684 114.269 184.557 114.177C183.666 113.539 182.737 112.957 181.774 112.435C180.899 111.96 180.001 111.529 179.083 111.145C176.985 110.268 174.813 109.583 172.591 109.096C170.058 108.542 167.494 108.14 164.913 107.893C162.333 107.627 159.741 107.465 157.148 107.303C157.039 107.291 157.039 107.135 157.148 107.141C157.478 107.164 157.802 107.181 158.126 107.204C160.747 107.366 163.368 107.552 165.972 107.847C168.554 108.123 171.115 108.568 173.639 109.177C175.794 109.707 177.896 110.43 179.922 111.336C180.686 111.683 181.432 112.059 182.161 112.47C183.243 113.063 184.276 113.74 185.251 114.495Z"
        fill="white"></path>
    <path
        d="M194.011 115.889C193.919 115.872 193.826 115.849 193.734 115.831C193.629 115.721 193.531 115.606 193.433 115.49C192.935 114.917 192.443 114.339 191.957 113.754C190.042 111.475 188.225 109.125 186.513 106.73C185.043 104.682 183.649 102.593 182.329 100.464C181.699 99.457 181.091 98.4386 180.495 97.4087C180.032 96.6103 179.581 95.8099 179.141 95.0075C179.014 94.7761 178.892 94.5446 178.771 94.3131C178.487 93.7692 178.204 93.2196 177.903 92.6815C177.576 92.0223 177.096 91.4509 176.503 91.0151C176.206 90.8167 175.863 90.699 175.507 90.6738C175.006 90.6756 174.513 90.8029 174.073 91.044C170.835 92.5515 167.782 94.4249 164.971 96.6276C162.226 98.7626 159.744 101.216 157.577 103.935C157.507 104.016 157.357 103.941 157.42 103.854C157.681 103.53 157.947 103.206 158.213 102.888C160.296 100.424 162.642 98.1949 165.208 96.2399C165.214 96.2341 165.226 96.2283 165.232 96.2226C165.457 96.0432 165.683 95.8697 165.914 95.7018C167.347 94.6466 168.839 93.673 170.381 92.7857C171.168 92.3285 171.972 91.8946 172.794 91.4838C172.996 91.3797 173.205 91.2755 173.413 91.1771C173.621 91.073 173.83 90.9747 174.038 90.8762C174.45 90.666 174.901 90.542 175.363 90.5118C176.971 90.4886 177.799 92.1087 178.372 93.2022C178.551 93.5437 178.736 93.885 178.916 94.2264C179.61 95.5166 180.333 96.8012 181.085 98.0683C181.542 98.8552 182.017 99.6364 182.497 100.412C183.186 101.517 183.891 102.61 184.626 103.698C184.626 103.699 184.626 103.7 184.627 103.7C184.627 103.701 184.627 103.702 184.628 103.702C184.628 103.703 184.629 103.703 184.63 103.704C184.63 103.704 184.631 103.704 184.632 103.704C185.482 104.988 186.368 106.25 187.282 107.505C188.85 109.652 190.493 111.75 192.212 113.801C192.802 114.506 193.402 115.203 194.011 115.889Z"
        fill="white"></path>
    <path
        d="M173.368 90.3354L173.208 90.4054C172.842 89.7863 172.328 89.2674 171.712 88.8948C171.097 88.5222 170.399 88.3074 169.681 88.2695C167.312 88.1012 165.231 89.6799 165.042 91.7883C164.965 92.6565 165.216 93.522 165.746 94.214L165.597 94.3018C165.046 93.5811 164.784 92.6799 164.864 91.7757C165.061 89.5801 167.228 87.9361 169.695 88.1113C170.443 88.1507 171.17 88.3744 171.811 88.7624C172.452 89.1504 172.987 89.6907 173.368 90.3354Z"
        fill="#FF6582"></path>
    <path
        d="M161.663 94.6012C161.042 94.3308 160.365 94.2123 159.688 94.2553C159.011 94.2984 158.355 94.5019 157.772 94.8489C159.899 95.1751 162.006 95.613 164.086 96.1606C163.225 95.7113 162.551 95.0074 161.663 94.6012Z"
        fill="white"></path>
    <path
        d="M157.76 94.847L157.526 95.0164C157.606 94.9571 157.688 94.9015 157.772 94.8489L157.76 94.847Z"
        fill="white"></path>
    <path
        d="M164.811 95.8294C164.718 95.7368 164.625 95.6442 164.531 95.5516C163.811 94.7678 162.943 94.1332 161.978 93.6838C161.487 93.4769 160.96 93.3681 160.427 93.3637C159.876 93.3765 159.331 93.4823 158.816 93.6764C158.573 93.7626 158.336 93.8605 158.103 93.9648C157.836 94.0843 157.574 94.2119 157.313 94.3404C156.823 94.5817 156.339 94.8336 155.862 95.096C154.913 95.6183 153.993 96.1804 153.103 96.7824C152.642 97.0945 152.19 97.4169 151.748 97.7496C151.337 98.0586 150.934 98.3759 150.539 98.7015C150.454 98.7708 150.328 98.6586 150.413 98.5893C150.517 98.503 150.622 98.4173 150.727 98.3327C151.024 98.0935 151.326 97.8589 151.633 97.6289C152.193 97.2088 152.766 96.8049 153.355 96.4173C154.27 95.8141 155.216 95.2518 156.194 94.7304C156.682 94.4701 157.178 94.2207 157.68 93.9822C157.831 93.9103 157.985 93.8399 158.14 93.7732C158.494 93.6143 158.86 93.4819 159.234 93.3769C159.77 93.2232 160.331 93.1742 160.886 93.2325C161.417 93.3003 161.933 93.459 162.41 93.7018C163.356 94.232 164.209 94.9125 164.937 95.7167C165.013 95.7929 164.888 95.9056 164.811 95.8294Z"
        fill="white"></path>
    <path
        d="M78.3539 74.2122C91.3961 70.0511 105.946 71.1528 118.302 77.0149C121.827 78.6788 125.157 80.7295 128.229 83.1291C129.098 83.8112 130.335 82.5911 129.457 81.9017C118.108 73.0995 103.849 68.9181 89.5442 70.1975C85.5867 70.5516 81.6796 71.3366 77.8924 72.5384C76.8322 72.8766 77.2854 74.5531 78.3539 74.2122Z"
        fill="#D0D0D0"></path>
    <path
        d="M78.3539 85.7842C91.3961 81.6231 105.946 82.7248 118.302 88.5869C121.827 90.2508 125.157 92.3015 128.229 94.7012C129.098 95.3832 130.335 94.1632 129.457 93.4738C118.108 84.6715 103.849 80.4901 89.5442 81.7695C85.5867 82.1237 81.6796 82.9086 77.8924 84.1104C76.8322 84.4487 77.2854 86.1251 78.3539 85.7842Z"
        fill="#D0D0D0"></path>
    <path
        d="M78.3539 97.3563C91.3961 93.1952 105.946 94.2969 118.302 100.159C121.827 101.823 125.157 103.874 128.229 106.273C129.098 106.955 130.335 105.735 129.457 105.046C118.108 96.2436 103.849 92.0622 89.5442 93.3416C85.5867 93.6957 81.6796 94.4807 77.8924 95.6825C76.8322 96.0207 77.2854 97.6972 78.3539 97.3563Z"
        fill="#D0D0D0"></path>
    <path
        d="M78.3539 108.928C91.3961 104.767 105.946 105.869 118.302 111.731C121.827 113.395 125.157 115.446 128.229 117.845C129.098 118.527 130.335 117.307 129.457 116.618C118.108 107.816 103.849 103.634 89.5442 104.914C85.5867 105.268 81.6796 106.053 77.8924 107.255C76.8322 107.593 77.2854 109.269 78.3539 108.928Z"
        fill="#D0D0D0"></path>
    <path
        d="M78.3539 120.5C91.3961 116.339 105.946 117.441 118.302 123.303C121.827 124.967 125.157 127.018 128.229 129.417C129.098 130.099 130.335 128.879 129.457 128.19C118.108 119.388 103.849 115.206 89.5442 116.486C85.5867 116.84 81.6796 117.625 77.8924 118.827C76.8322 119.165 77.2854 120.841 78.3539 120.5Z"
        fill="#D0D0D0"></path>
    <path
        d="M125.343 48.7063V76.4557C125.343 77.0071 124.379 77.4687 123.08 77.5954C123.069 77.5947 123.058 77.5961 123.048 77.5994C122.831 77.6158 122.602 77.628 122.37 77.628C121.653 77.6412 120.941 77.525 120.266 77.2849C120.204 77.2604 120.143 77.2318 120.082 77.2073C120.025 77.1746 119.963 77.146 119.906 77.1133C119.584 76.9213 119.396 76.6967 119.396 76.4557V46.3125C121.44 46.9465 123.43 47.7471 125.343 48.7063Z"
        fill="#151515"></path>
    <path d="M137.81 55.1423H136.96V154.095H137.81V55.1423Z" fill="#E6E6E6"></path>
    <path
        d="M230.221 122.882C230.824 122.827 231.407 122.641 231.93 122.336C232.453 122.031 232.902 121.615 233.247 121.118C233.591 120.62 233.823 120.053 233.924 119.457C234.026 118.861 233.996 118.249 233.836 117.665L251.474 109.432L262.093 92.2549L253.746 88.8851L246.583 102.727L228.452 114.809C227.489 115.143 226.683 115.818 226.185 116.707C225.687 117.596 225.532 118.637 225.751 119.632C225.969 120.627 226.544 121.507 227.368 122.107C228.192 122.706 229.207 122.982 230.221 122.882Z"
        fill="#FFB6B6"></path>
    <path
        d="M268.643 75.7998C268.643 75.7998 270.722 76.4783 268.44 80.5103C266.614 83.7382 257.716 102.331 254.085 105.982C254.467 106.594 254.634 107.316 254.561 108.034C254.488 108.752 254.177 109.426 253.679 109.948L245.296 103.295C245.136 100.875 246.737 100.635 247.686 100.717L249.614 93.8814L256.341 77.019L267.149 75.2827L268.643 75.7998Z"
        fill="#CCCCCC"></path>
    <path
        d="M268.824 44.1946C269.22 42.592 272.096 41.4086 267.17 39.1711C265.975 38.6281 266.024 36.7581 265.013 35.9206C264.002 35.0832 262.521 34.6949 261.346 35.2803C260.296 35.803 259.705 36.9859 259.579 38.1517C259.518 39.3249 259.654 40.5001 259.979 41.6288L259.884 41.7684C261.835 43.2615 263.786 44.7545 265.738 46.2476C266.455 46.7963 267.392 47.3708 268.196 46.9591C269.105 46.493 268.579 45.1868 268.824 44.1946Z"
        fill="#151515"></path>
</svg>