<svg width="20" height="22" viewBox="0 0 20 22" fill="none" xmlns="http://www.w3.org/2000/svg">
    <path
        d="M15.4 5.53786C15.3998 6.10076 15.2599 6.65811 14.9884 7.1781C14.7169 7.69808 14.3191 8.17051 13.8176 8.5684C13.3162 8.9663 12.721 9.28188 12.0659 9.49712C11.4109 9.71236 10.7089 9.82305 10 9.82286C8.93234 9.82258 7.88876 9.57091 7.00122 9.09967C6.11369 8.62844 5.42207 7.95881 5.01382 7.17546C4.60558 6.39211 4.49904 5.53022 4.70768 4.69879C4.91632 3.86736 5.43077 3.10373 6.18597 2.50446C6.94117 1.90519 7.90321 1.4972 8.95043 1.33209C9.99765 1.16697 11.083 1.25214 12.0693 1.57683C13.0555 1.90152 13.8984 2.45115 14.4912 3.15621C15.0841 3.86126 15.4004 4.69008 15.4 5.53786ZM19 21.2486H1V18.3957C1 17.2585 1.56893 16.1679 2.58162 15.3637C3.59432 14.5596 4.96783 14.1079 6.4 14.1079H13.6C15.0322 14.1079 16.4057 14.5596 17.4184 15.3637C18.4311 16.1679 19 17.2585 19 18.3957V21.25V21.2486Z"
        stroke="#131313" stroke-width="1.2" stroke-linecap="square" />
</svg>
    